<svg width="64" height="64" viewBox="0 0 64 64" fill="none" xmlns="http://www.w3.org/2000/svg">
  <defs>
    <linearGradient id="clarity-gradient" x1="13" y1="8" x2="53" y2="55" gradientUnits="userSpaceOnUse">
      <stop stop-color="#9B87F5"/>
      <stop offset="1" stop-color="#EF476F"/>
    </linearGradient>
  </defs>
  <rect width="64" height="64" rx="17" fill="#111014"/>
  <path d="M8 18C8 11.925 12.925 7 19 7H45C51.075 7 56 11.925 56 18V42C56 48.075 51.075 53 45 53H23L8 59V18Z" fill="url(#clarity-gradient)"/>
  <path d="M46.5 41.25C43.058 45.438 38.118 47.5 32.563 47.5C22.52 47.5 15 40.937 15 31C15 21.063 22.52 14.5 32.563 14.5C38.118 14.5 43.058 16.562 46.5 20.75L39.44 26.04C37.727 23.982 35.523 22.875 32.563 22.875C27.37 22.875 23.75 26.15 23.75 31C23.75 35.85 27.37 39.125 32.563 39.125C35.523 39.125 37.727 38.018 39.44 35.96L46.5 41.25Z" fill="#FFFFFF"/>
</svg>
